<svg width="80" height="80" viewBox="0 0 80 80" fill="none" xmlns="http://www.w3.org/2000/svg">
<path fill-rule="evenodd" clip-rule="evenodd" d="M40 5L70 22.5004V57.5013L40 75L10 57.5013V22.5004L40 5ZM12.9832 24.2406V55.7611L40 71.5197L67.0168 55.7611V24.2406L40 8.48039L12.9832 24.2406Z" fill="#010101"/>
<path fill-rule="evenodd" clip-rule="evenodd" d="M39.934 13H41.5536L52.402 36.8907L52.9778 38.3389L51.6246 38.7307L51.5852 38.7388C50.8571 38.8884 50.1542 39.1273 49.4916 39.4476L53.9487 46.4836H64.3698L64.3698 47.4997C64.3699 49.5761 63.7807 51.6098 62.6708 53.365C61.5609 55.1201 59.9757 56.5246 58.0992 57.4154C56.2227 58.3062 54.1319 58.6468 52.0695 58.3976C50.0071 58.1485 48.0578 57.3198 46.4477 56.0077C44.8376 54.6957 43.6328 52.9542 42.9732 50.9853C42.3137 49.0164 42.2263 46.9009 42.7213 44.8843C43.2164 42.8678 44.2735 41.033 45.7699 39.5928C46.0596 39.314 46.3635 39.0523 46.6799 38.8083L41.4586 30.5659H31.3442L32.4551 28.2942L39.934 13ZM34.6013 28.5336H42.5779L48.3981 37.7214C48.9793 37.4251 49.5872 37.1805 50.2147 36.9912L40.7056 16.0503L34.6013 28.5336ZM47.7734 40.5345C47.5686 40.6994 47.3707 40.8736 47.1803 41.0569C45.9609 42.2304 45.0995 43.7255 44.6962 45.3686C44.2928 47.0118 44.364 48.7356 44.9014 50.34C45.4389 51.9444 46.4206 53.3635 47.7326 54.4326C49.0445 55.5017 50.633 56.1769 52.3135 56.3799C53.9941 56.583 55.6977 56.3054 57.2268 55.5796C58.7558 54.8537 60.0476 53.7092 60.952 52.2791C61.6743 51.1369 62.126 49.8498 62.2785 48.5159H52.8294L47.7734 40.5345ZM26.8209 26.728C25.7352 24.8007 23.9279 23.3834 21.7966 22.788L22.344 20.8307C24.9946 21.5712 27.2424 23.3338 28.5927 25.7308C29.9431 28.1277 30.2855 30.9627 29.5446 33.6119C28.8037 36.2612 27.0402 38.5078 24.642 39.8575C22.2439 41.2072 19.4075 41.5494 16.7569 40.8089L16.7547 40.8083L15 40.3138L15.5518 38.3577L17.3043 38.8516C17.3048 38.8517 17.3052 38.8518 17.3057 38.852C19.4365 39.4469 21.7165 39.1716 23.6444 38.0866C25.5726 37.0014 26.9906 35.195 27.5863 33.0648C28.182 30.9347 27.9067 28.6552 26.8209 26.728ZM58.9385 21.198C58.9389 21.1981 58.9393 21.1981 58.8015 22.2049L58.9393 21.1981L59.9128 21.3313L58.8843 31.3884C59.157 31.4298 59.4319 31.4812 59.7045 31.5474L59.705 31.5475C60.8802 31.8335 62.1236 32.3436 63.1164 33.2446L63.1205 33.2483L63.1246 33.2521C64.2563 34.3021 64.9259 35.7571 64.9871 37.299C65.0726 38.8009 64.7295 40.0341 64.0714 41.0108C63.4188 41.9794 62.5063 42.6224 61.5687 43.0401C59.7295 43.8594 57.6265 43.8882 56.5342 43.7016L55.5974 43.5415L56.6541 33.2093C55.8251 33.1359 54.9056 33.0223 53.996 32.6823L53.9949 32.6818C52.6565 32.1797 51.6189 31.3219 50.9752 30.1927C50.334 29.0676 50.1213 27.7396 50.3122 26.3521L50.3123 26.3514C50.5256 24.8094 51.2012 23.668 52.1212 22.8596C53.0217 22.0684 54.1061 21.6387 55.0971 21.4049C56.0916 21.1702 57.0459 21.12 57.7421 21.1257C58.0928 21.1286 58.3847 21.1457 58.5918 21.1625C58.6955 21.1709 58.7784 21.1793 58.8373 21.1858C58.8668 21.1891 58.8902 21.1919 58.9074 21.194C58.9159 21.1951 58.9229 21.196 58.9283 21.1967L58.935 21.1976L58.9385 21.198ZM56.8609 31.1872L57.6821 23.1577C57.0936 23.1554 56.3313 23.2019 55.5643 23.3829C54.7748 23.5691 54.0337 23.8852 53.4638 24.386C52.9135 24.8695 52.4738 25.5662 52.3266 26.6289M56.8609 31.1872C56.0576 31.1165 55.3601 31.0223 54.7086 30.7788C53.7716 30.4271 53.1282 29.8642 52.7421 29.1867C52.3535 28.505 52.1877 27.6401 52.3265 26.6297M58.6773 33.4126L57.8232 41.7638C58.6694 41.7597 59.7721 41.6153 60.7409 41.1837C61.4241 40.8794 61.9961 40.4525 62.3848 39.8756C62.7666 39.309 63.0215 38.5245 62.9566 37.4068L62.956 37.3966L62.9556 37.3864C62.9174 36.3807 62.4822 35.4311 61.7453 34.7454C61.0893 34.1518 60.2004 33.7598 59.2239 33.5222C59.0432 33.4783 58.8616 33.4426 58.6773 33.4126ZM34.7085 49.7919V51.6288H32.6751V50.8176L28.0782 53.1365L37.982 64.2126V48.1405L34.7085 49.7919ZM34.7085 47.5153L40.0154 44.8382V67H37.7472L26.1989 54.0846L18.9065 57.7633V45.46H21.2142L26.6754 51.5677L32.6751 48.5411V35.7886H34.7085V47.5153ZM24.796 52.5157L20.9399 48.2031V54.461L24.796 52.5157Z" fill="#010101"/>
</svg>
